<svg width="24" height="24" viewBox="0 0 24 24" fill="none" xmlns="http://www.w3.org/2000/svg">
<g clip-path="url(#clip0_116_422)">
<path d="M21.75 18.7563H11.25L5.25 23.2563V18.7563H2.25C1.85218 18.7563 1.47064 18.5983 1.18934 18.317C0.908035 18.0357 0.75 17.6542 0.75 17.2563V2.25635C0.75 1.85852 0.908035 1.47699 1.18934 1.19569C1.47064 0.914383 1.85218 0.756348 2.25 0.756348H21.75C22.1478 0.756348 22.5294 0.914383 22.8107 1.19569C23.092 1.47699 23.25 1.85852 23.25 2.25635V17.2563C23.25 17.6542 23.092 18.0357 22.8107 18.317C22.5294 18.5983 22.1478 18.7563 21.75 18.7563Z" stroke="black" stroke-width="1.5" stroke-linecap="round" stroke-linejoin="round"/>
<path d="M5.25 7.50635H18.75" stroke="black" stroke-width="1.5" stroke-linecap="round" stroke-linejoin="round"/>
<path d="M5.25 12.0063H15.75" stroke="black" stroke-width="1.5" stroke-linecap="round" stroke-linejoin="round"/>
</g>
<defs>
<clipPath id="clip0_116_422">
<rect width="24" height="24" fill="white" transform="translate(0 0.00634766)"/>
</clipPath>
</defs>
</svg>
